<svg xmlns="http://www.w3.org/2000/svg" xmlns:xlink="http://www.w3.org/1999/xlink" contentStyleType="text/css" data-diagram-type="CLASS" height="972px" preserveAspectRatio="none" style="width:1266px;height:972px;background:#FFFFFF;" version="1.1" viewBox="0 0 1266 972" width="1266px" zoomAndPan="magnify"><defs/><g><!--cluster Verification API--><g class="cluster" data-entity="Verification API" data-source-line="3" data-uid="ent0002" id="cluster_Verification API"><path d="M224.5,167 L336.9531,167 A3.75,3.75 0 0 1 339.4531,169.5 L346.4531,189.4883 L581.5,189.4883 A2.5,2.5 0 0 1 584,191.9883 L584,602.45 A2.5,2.5 0 0 1 581.5,604.95 L224.5,604.95 A2.5,2.5 0 0 1 222,602.45 L222,169.5 A2.5,2.5 0 0 1 224.5,167" fill="none" style="stroke:#000000;stroke-width:1.5;"/><line style="stroke:#000000;stroke-width:1.5;" x1="222" x2="346.4531" y1="189.4883" y2="189.4883"/><text fill="#000000" font-family="sans-serif" font-size="14" font-weight="bold" lengthAdjust="spacing" textLength="111.4531" x="226" y="182.5352">Verification API</text></g><!--cluster System Arquitecture--><g class="cluster" data-entity="System Arquitecture" data-source-line="10" data-uid="ent0007" id="cluster_System Arquitecture"><path d="M610.5,505.95 L758.1035,505.95 A3.75,3.75 0 0 1 760.6035,508.45 L767.6035,528.4383 L1186.5,528.4383 A2.5,2.5 0 0 1 1189,530.9383 L1189,963.45 A2.5,2.5 0 0 1 1186.5,965.95 L610.5,965.95 A2.5,2.5 0 0 1 608,963.45 L608,508.45 A2.5,2.5 0 0 1 610.5,505.95" fill="none" style="stroke:#000000;stroke-width:1.5;"/><line style="stroke:#000000;stroke-width:1.5;" x1="608" x2="767.6035" y1="528.4383" y2="528.4383"/><text fill="#000000" font-family="sans-serif" font-size="14" font-weight="bold" lengthAdjust="spacing" textLength="146.6035" x="612" y="521.4852">System Arquitecture</text></g><!--cluster Catalog & Config--><g class="cluster" data-entity="Catalog . Config" data-source-line="24" data-uid="ent0019" id="cluster_Catalog . Config"><path d="M8.5,6 L131.6924,6 A3.75,3.75 0 0 1 134.1924,8.5 L141.1924,28.4883 L195.5,28.4883 A2.5,2.5 0 0 1 198,30.9883 L198,454.45 A2.5,2.5 0 0 1 195.5,456.95 L8.5,456.95 A2.5,2.5 0 0 1 6,454.45 L6,8.5 A2.5,2.5 0 0 1 8.5,6" fill="none" style="stroke:#000000;stroke-width:1.5;"/><line style="stroke:#000000;stroke-width:1.5;" x1="6" x2="141.1924" y1="28.4883" y2="28.4883"/><text fill="#000000" font-family="sans-serif" font-size="14" font-weight="bold" lengthAdjust="spacing" textLength="122.1924" x="10" y="21.5352">Catalog &amp; Config</text></g><!--class VerificationFramework--><g class="entity" data-entity="VerificationFramework" data-source-line="4" data-uid="ent0003" id="entity_VerificationFramework"><rect fill="#F1F1F1" height="48" rx="2.5" ry="2.5" style="stroke:#181818;stroke-width:0.5;" width="184.5303" x="237.73" y="202"/><ellipse cx="252.73" cy="218" fill="#ADD1B2" rx="11" ry="11" style="stroke:#181818;stroke-width:1;"/><path d="M255.2031,224.1431 Q254.6221,224.4419 253.9829,224.5913 Q253.3438,224.7407 252.6382,224.7407 Q250.1314,224.7407 248.8115,223.0889 Q247.4917,221.437 247.4917,218.3159 Q247.4917,215.1865 248.8115,213.5347 Q250.1314,211.8828 252.6382,211.8828 Q253.3438,211.8828 253.9912,212.0322 Q254.6387,212.1816 255.2031,212.4805 L255.2031,215.2031 Q254.5723,214.6221 253.9788,214.3523 Q253.3853,214.0825 252.7544,214.0825 Q251.4097,214.0825 250.7249,215.1492 Q250.0401,216.2158 250.0401,218.3159 Q250.0401,220.4077 250.7249,221.4744 Q251.4097,222.541 252.7544,222.541 Q253.3853,222.541 253.9788,222.2712 Q254.5723,222.0015 255.2031,221.4204 Z " fill="#000000"/><text fill="#000000" font-family="sans-serif" font-size="14" lengthAdjust="spacing" textLength="152.5303" x="266.73" y="223.291">VerificationFramework</text><line style="stroke:#181818;stroke-width:0.5;" x1="238.73" x2="421.2603" y1="234" y2="234"/><line style="stroke:#181818;stroke-width:0.5;" x1="238.73" x2="421.2603" y1="242" y2="242"/></g><!--class VerificationBuilder--><g class="entity" data-entity="VerificationBuilder" data-source-line="5" data-uid="ent0004" id="entity_VerificationBuilder"><rect fill="#F1F1F1" height="48" rx="2.5" ry="2.5" style="stroke:#181818;stroke-width:0.5;" width="156.5713" x="411.71" y="359.97"/><ellipse cx="426.71" cy="375.97" fill="#ADD1B2" rx="11" ry="11" style="stroke:#181818;stroke-width:1;"/><path d="M429.1831,382.1131 Q428.6021,382.4119 427.9629,382.5613 Q427.3238,382.7107 426.6182,382.7107 Q424.1114,382.7107 422.7915,381.0589 Q421.4717,379.407 421.4717,376.2859 Q421.4717,373.1565 422.7915,371.5047 Q424.1114,369.8528 426.6182,369.8528 Q427.3238,369.8528 427.9712,370.0022 Q428.6187,370.1516 429.1831,370.4505 L429.1831,373.1731 Q428.5523,372.5921 427.9588,372.3223 Q427.3653,372.0525 426.7344,372.0525 Q425.3897,372.0525 424.7049,373.1192 Q424.0201,374.1858 424.0201,376.2859 Q424.0201,378.3777 424.7049,379.4444 Q425.3897,380.511 426.7344,380.511 Q427.3653,380.511 427.9588,380.2412 Q428.5523,379.9715 429.1831,379.3904 Z " fill="#000000"/><text fill="#000000" font-family="sans-serif" font-size="14" lengthAdjust="spacing" textLength="124.5713" x="440.71" y="381.261">VerificationBuilder</text><line style="stroke:#181818;stroke-width:0.5;" x1="412.71" x2="567.2813" y1="391.97" y2="391.97"/><line style="stroke:#181818;stroke-width:0.5;" x1="412.71" x2="567.2813" y1="399.97" y2="399.97"/></g><!--class VerificationResult--><g class="entity" data-entity="VerificationResult" data-source-line="6" data-uid="ent0005" id="entity_VerificationResult"><rect fill="#F1F1F1" height="48" rx="2.5" ry="2.5" style="stroke:#181818;stroke-width:0.5;" width="151.1572" x="238.42" y="540.95"/><ellipse cx="253.42" cy="556.95" fill="#ADD1B2" rx="11" ry="11" style="stroke:#181818;stroke-width:1;"/><path d="M255.8931,563.0931 Q255.3121,563.3919 254.6729,563.5413 Q254.0338,563.6907 253.3282,563.6907 Q250.8214,563.6907 249.5015,562.0389 Q248.1817,560.387 248.1817,557.2659 Q248.1817,554.1365 249.5015,552.4847 Q250.8214,550.8328 253.3282,550.8328 Q254.0338,550.8328 254.6812,550.9822 Q255.3287,551.1316 255.8931,551.4305 L255.8931,554.1531 Q255.2623,553.5721 254.6688,553.3023 Q254.0753,553.0325 253.4444,553.0325 Q252.0997,553.0325 251.4149,554.0992 Q250.7301,555.1658 250.7301,557.2659 Q250.7301,559.3577 251.4149,560.4244 Q252.0997,561.491 253.4444,561.491 Q254.0753,561.491 254.6688,561.2212 Q255.2623,560.9515 255.8931,560.3704 Z " fill="#000000"/><text fill="#000000" font-family="sans-serif" font-size="14" lengthAdjust="spacing" textLength="119.1572" x="267.42" y="562.241">VerificationResult</text><line style="stroke:#181818;stroke-width:0.5;" x1="239.42" x2="388.5772" y1="572.95" y2="572.95"/><line style="stroke:#181818;stroke-width:0.5;" x1="239.42" x2="388.5772" y1="580.95" y2="580.95"/></g><!--class WorkloadPattern--><g class="entity" data-entity="WorkloadPattern" data-source-line="7" data-uid="ent0006" id="entity_WorkloadPattern"><rect fill="#F1F1F1" height="48" rx="2.5" ry="2.5" style="stroke:#181818;stroke-width:0.5;" width="143.8359" x="424.08" y="540.95"/><ellipse cx="439.08" cy="556.95" fill="#ADD1B2" rx="11" ry="11" style="stroke:#181818;stroke-width:1;"/><path d="M441.5531,563.0931 Q440.9721,563.3919 440.3329,563.5413 Q439.6938,563.6907 438.9882,563.6907 Q436.4814,563.6907 435.1615,562.0389 Q433.8417,560.387 433.8417,557.2659 Q433.8417,554.1365 435.1615,552.4847 Q436.4814,550.8328 438.9882,550.8328 Q439.6938,550.8328 440.3412,550.9822 Q440.9887,551.1316 441.5531,551.4305 L441.5531,554.1531 Q440.9223,553.5721 440.3288,553.3023 Q439.7353,553.0325 439.1044,553.0325 Q437.7597,553.0325 437.0749,554.0992 Q436.3901,555.1658 436.3901,557.2659 Q436.3901,559.3577 437.0749,560.4244 Q437.7597,561.491 439.1044,561.491 Q439.7353,561.491 440.3288,561.2212 Q440.9223,560.9515 441.5531,560.3704 Z " fill="#000000"/><text fill="#000000" font-family="sans-serif" font-size="14" lengthAdjust="spacing" textLength="111.8359" x="453.08" y="562.241">WorkloadPattern</text><line style="stroke:#181818;stroke-width:0.5;" x1="425.08" x2="566.9159" y1="572.95" y2="572.95"/><line style="stroke:#181818;stroke-width:0.5;" x1="425.08" x2="566.9159" y1="580.95" y2="580.95"/></g><!--class Executioner--><g class="entity" data-entity="Executioner" data-source-line="11" data-uid="ent0008" id="entity_Executioner"><rect fill="#F1F1F1" height="48" rx="2.5" ry="2.5" style="stroke:#181818;stroke-width:0.5;" width="111.9326" x="839.03" y="540.95"/><ellipse cx="854.03" cy="556.95" fill="#ADD1B2" rx="11" ry="11" style="stroke:#181818;stroke-width:1;"/><path d="M856.5031,563.0931 Q855.9221,563.3919 855.2829,563.5413 Q854.6438,563.6907 853.9382,563.6907 Q851.4314,563.6907 850.1115,562.0389 Q848.7917,560.387 848.7917,557.2659 Q848.7917,554.1365 850.1115,552.4847 Q851.4314,550.8328 853.9382,550.8328 Q854.6438,550.8328 855.2912,550.9822 Q855.9387,551.1316 856.5031,551.4305 L856.5031,554.1531 Q855.8723,553.5721 855.2788,553.3023 Q854.6853,553.0325 854.0544,553.0325 Q852.7097,553.0325 852.0249,554.0992 Q851.3401,555.1658 851.3401,557.2659 Q851.3401,559.3577 852.0249,560.4244 Q852.7097,561.491 854.0544,561.491 Q854.6853,561.491 855.2788,561.2212 Q855.8723,560.9515 856.5031,560.3704 Z " fill="#000000"/><text fill="#000000" font-family="sans-serif" font-size="14" lengthAdjust="spacing" textLength="79.9326" x="868.03" y="562.241">Executioner</text><line style="stroke:#181818;stroke-width:0.5;" x1="840.03" x2="949.9626" y1="572.95" y2="572.95"/><line style="stroke:#181818;stroke-width:0.5;" x1="840.03" x2="949.9626" y1="580.95" y2="580.95"/></g><!--class OperationCall--><g class="entity" data-entity="OperationCall" data-source-line="12" data-uid="ent0009" id="entity_OperationCall"><rect fill="#F1F1F1" height="48" rx="2.5" ry="2.5" style="stroke:#181818;stroke-width:0.5;" width="125.0303" x="624.48" y="667.95"/><ellipse cx="639.48" cy="683.95" fill="#ADD1B2" rx="11" ry="11" style="stroke:#181818;stroke-width:1;"/><path d="M641.9531,690.0931 Q641.3721,690.3919 640.7329,690.5413 Q640.0938,690.6907 639.3882,690.6907 Q636.8814,690.6907 635.5615,689.0389 Q634.2417,687.387 634.2417,684.2659 Q634.2417,681.1365 635.5615,679.4847 Q636.8814,677.8328 639.3882,677.8328 Q640.0938,677.8328 640.7412,677.9822 Q641.3887,678.1316 641.9531,678.4305 L641.9531,681.1531 Q641.3223,680.5721 640.7288,680.3023 Q640.1353,680.0325 639.5044,680.0325 Q638.1597,680.0325 637.4749,681.0992 Q636.7901,682.1658 636.7901,684.2659 Q636.7901,686.3577 637.4749,687.4244 Q638.1597,688.491 639.5044,688.491 Q640.1353,688.491 640.7288,688.2212 Q641.3223,687.9515 641.9531,687.3704 Z " fill="#000000"/><text fill="#000000" font-family="sans-serif" font-size="14" lengthAdjust="spacing" textLength="93.0303" x="653.48" y="689.241">OperationCall</text><line style="stroke:#181818;stroke-width:0.5;" x1="625.48" x2="748.5103" y1="699.95" y2="699.95"/><line style="stroke:#181818;stroke-width:0.5;" x1="625.48" x2="748.5103" y1="707.95" y2="707.95"/></g><!--class Wrapper--><g class="entity" data-entity="Wrapper" data-source-line="13" data-uid="ent0010" id="entity_Wrapper"><rect fill="#F1F1F1" height="48" rx="2.5" ry="2.5" style="stroke:#181818;stroke-width:0.5;" width="88.5879" x="951.71" y="667.95"/><ellipse cx="966.71" cy="683.95" fill="#ADD1B2" rx="11" ry="11" style="stroke:#181818;stroke-width:1;"/><path d="M969.1831,690.0931 Q968.6021,690.3919 967.9629,690.5413 Q967.3238,690.6907 966.6182,690.6907 Q964.1114,690.6907 962.7915,689.0389 Q961.4717,687.387 961.4717,684.2659 Q961.4717,681.1365 962.7915,679.4847 Q964.1114,677.8328 966.6182,677.8328 Q967.3238,677.8328 967.9712,677.9822 Q968.6187,678.1316 969.1831,678.4305 L969.1831,681.1531 Q968.5523,680.5721 967.9588,680.3023 Q967.3653,680.0325 966.7344,680.0325 Q965.3897,680.0325 964.7049,681.0992 Q964.0201,682.1658 964.0201,684.2659 Q964.0201,686.3577 964.7049,687.4244 Q965.3897,688.491 966.7344,688.491 Q967.3653,688.491 967.9588,688.2212 Q968.5523,687.9515 969.1831,687.3704 Z " fill="#000000"/><text fill="#000000" font-family="sans-serif" font-size="14" lengthAdjust="spacing" textLength="56.5879" x="980.71" y="689.241">Wrapper</text><line style="stroke:#181818;stroke-width:0.5;" x1="952.71" x2="1039.2979" y1="699.95" y2="699.95"/><line style="stroke:#181818;stroke-width:0.5;" x1="952.71" x2="1039.2979" y1="707.95" y2="707.95"/></g><!--class Verifier--><g class="entity" data-entity="Verifier" data-source-line="14" data-uid="ent0011" id="entity_Verifier"><rect fill="#F1F1F1" height="48" rx="2.5" ry="2.5" style="stroke:#181818;stroke-width:0.5;" width="81.4512" x="798.27" y="667.95"/><ellipse cx="813.27" cy="683.95" fill="#ADD1B2" rx="11" ry="11" style="stroke:#181818;stroke-width:1;"/><path d="M815.7431,690.0931 Q815.1621,690.3919 814.5229,690.5413 Q813.8838,690.6907 813.1782,690.6907 Q810.6714,690.6907 809.3515,689.0389 Q808.0317,687.387 808.0317,684.2659 Q808.0317,681.1365 809.3515,679.4847 Q810.6714,677.8328 813.1782,677.8328 Q813.8838,677.8328 814.5312,677.9822 Q815.1787,678.1316 815.7431,678.4305 L815.7431,681.1531 Q815.1123,680.5721 814.5188,680.3023 Q813.9253,680.0325 813.2944,680.0325 Q811.9497,680.0325 811.2649,681.0992 Q810.5801,682.1658 810.5801,684.2659 Q810.5801,686.3577 811.2649,687.4244 Q811.9497,688.491 813.2944,688.491 Q813.9253,688.491 814.5188,688.2212 Q815.1123,687.9515 815.7431,687.3704 Z " fill="#000000"/><text fill="#000000" font-family="sans-serif" font-size="14" lengthAdjust="spacing" textLength="49.4512" x="827.27" y="689.241">Verifier</text><line style="stroke:#181818;stroke-width:0.5;" x1="799.27" x2="878.7212" y1="699.95" y2="699.95"/><line style="stroke:#181818;stroke-width:0.5;" x1="799.27" x2="878.7212" y1="707.95" y2="707.95"/></g><!--class Snapshot--><g class="entity" data-entity="Snapshot" data-source-line="15" data-uid="ent0012" id="entity_Snapshot"><rect fill="#F1F1F1" height="48" rx="2.5" ry="2.5" style="stroke:#181818;stroke-width:0.5;" width="94.4326" x="916.78" y="792.95"/><ellipse cx="931.78" cy="808.95" fill="#A9DCDF" rx="11" ry="11" style="stroke:#181818;stroke-width:1;"/><path d="M931.6433,804.2981 L930.4895,809.3699 L932.8054,809.3699 Z M930.1491,802.0569 L933.1457,802.0569 L936.4909,814.45 L934.0422,814.45 L933.2785,811.387 L929.9997,811.387 L929.2527,814.45 L926.8039,814.45 Z " fill="#000000"/><text fill="#000000" font-family="sans-serif" font-size="14" font-style="italic" lengthAdjust="spacing" textLength="62.4326" x="945.78" y="814.241">Snapshot</text><line style="stroke:#181818;stroke-width:0.5;" x1="917.78" x2="1010.2126" y1="824.95" y2="824.95"/><line style="stroke:#181818;stroke-width:0.5;" x1="917.78" x2="1010.2126" y1="832.95" y2="832.95"/></g><!--class CollectFAInc--><g class="entity" data-entity="CollectFAInc" data-source-line="16" data-uid="ent0013" id="entity_CollectFAInc"><rect fill="#F1F1F1" height="48" rx="2.5" ry="2.5" style="stroke:#181818;stroke-width:0.5;" width="115.6445" x="850.18" y="901.95"/><ellipse cx="865.18" cy="917.95" fill="#ADD1B2" rx="11" ry="11" style="stroke:#181818;stroke-width:1;"/><path d="M867.6531,924.0931 Q867.0721,924.3919 866.4329,924.5413 Q865.7938,924.6907 865.0882,924.6907 Q862.5814,924.6907 861.2615,923.0389 Q859.9417,921.387 859.9417,918.2659 Q859.9417,915.1365 861.2615,913.4847 Q862.5814,911.8328 865.0882,911.8328 Q865.7938,911.8328 866.4412,911.9822 Q867.0887,912.1316 867.6531,912.4305 L867.6531,915.1531 Q867.0223,914.5721 866.4288,914.3023 Q865.8353,914.0325 865.2044,914.0325 Q863.8597,914.0325 863.1749,915.0992 Q862.4901,916.1658 862.4901,918.2659 Q862.4901,920.3577 863.1749,921.4244 Q863.8597,922.491 865.2044,922.491 Q865.8353,922.491 866.4288,922.2212 Q867.0223,921.9515 867.6531,921.3704 Z " fill="#000000"/><text fill="#000000" font-family="sans-serif" font-size="14" lengthAdjust="spacing" textLength="83.6445" x="879.18" y="923.241">CollectFAInc</text><line style="stroke:#181818;stroke-width:0.5;" x1="851.18" x2="964.8245" y1="933.95" y2="933.95"/><line style="stroke:#181818;stroke-width:0.5;" x1="851.18" x2="964.8245" y1="941.95" y2="941.95"/></g><!--class CollectRAW--><g class="entity" data-entity="CollectRAW" data-source-line="17" data-uid="ent0014" id="entity_CollectRAW"><rect fill="#F1F1F1" height="48" rx="2.5" ry="2.5" style="stroke:#181818;stroke-width:0.5;" width="109.0752" x="1000.46" y="901.95"/><ellipse cx="1015.46" cy="917.95" fill="#ADD1B2" rx="11" ry="11" style="stroke:#181818;stroke-width:1;"/><path d="M1017.9331,924.0931 Q1017.3521,924.3919 1016.7129,924.5413 Q1016.0738,924.6907 1015.3682,924.6907 Q1012.8614,924.6907 1011.5415,923.0389 Q1010.2217,921.387 1010.2217,918.2659 Q1010.2217,915.1365 1011.5415,913.4847 Q1012.8614,911.8328 1015.3682,911.8328 Q1016.0738,911.8328 1016.7212,911.9822 Q1017.3687,912.1316 1017.9331,912.4305 L1017.9331,915.1531 Q1017.3023,914.5721 1016.7088,914.3023 Q1016.1153,914.0325 1015.4844,914.0325 Q1014.1397,914.0325 1013.4549,915.0992 Q1012.7701,916.1658 1012.7701,918.2659 Q1012.7701,920.3577 1013.4549,921.4244 Q1014.1397,922.491 1015.4844,922.491 Q1016.1153,922.491 1016.7088,922.2212 Q1017.3023,921.9515 1017.9331,921.3704 Z " fill="#000000"/><text fill="#000000" font-family="sans-serif" font-size="14" lengthAdjust="spacing" textLength="77.0752" x="1029.46" y="923.241">CollectRAW</text><line style="stroke:#181818;stroke-width:0.5;" x1="1001.46" x2="1108.5352" y1="933.95" y2="933.95"/><line style="stroke:#181818;stroke-width:0.5;" x1="1001.46" x2="1108.5352" y1="941.95" y2="941.95"/></g><!--class DistAlgorithm--><g class="entity" data-entity="DistAlgorithm" data-source-line="18" data-uid="ent0015" id="entity_DistAlgorithm"><rect fill="#F1F1F1" height="48" rx="2.5" ry="2.5" style="stroke:#181818;stroke-width:0.5;" width="126.7119" x="1046.64" y="792.95"/><ellipse cx="1061.64" cy="808.95" fill="#B4A7E5" rx="11" ry="11" style="stroke:#181818;stroke-width:1;"/><path d="M1058.0677,805.2151 L1058.0677,803.0569 L1065.4471,803.0569 L1065.4471,805.2151 L1062.9818,805.2151 L1062.9818,813.2918 L1065.4471,813.2918 L1065.4471,815.45 L1058.0677,815.45 L1058.0677,813.2918 L1060.5331,813.2918 L1060.5331,805.2151 Z " fill="#000000"/><text fill="#000000" font-family="sans-serif" font-size="14" font-style="italic" lengthAdjust="spacing" textLength="94.7119" x="1075.64" y="814.241">DistAlgorithm</text><line style="stroke:#181818;stroke-width:0.5;" x1="1047.64" x2="1172.3519" y1="824.95" y2="824.95"/><line style="stroke:#181818;stroke-width:0.5;" x1="1047.64" x2="1172.3519" y1="832.95" y2="832.95"/></g><!--class A--><g class="entity" data-entity="A" data-source-line="19" data-uid="ent0016" id="entity_A"><rect fill="#F1F1F1" height="48" rx="2.5" ry="2.5" style="stroke:#181818;stroke-width:0.5;" width="41.6592" x="1075.17" y="667.95"/><ellipse cx="1090.17" cy="683.95" fill="#ADD1B2" rx="11" ry="11" style="stroke:#181818;stroke-width:1;"/><path d="M1092.6431,690.0931 Q1092.0621,690.3919 1091.4229,690.5413 Q1090.7838,690.6907 1090.0782,690.6907 Q1087.5714,690.6907 1086.2515,689.0389 Q1084.9317,687.387 1084.9317,684.2659 Q1084.9317,681.1365 1086.2515,679.4847 Q1087.5714,677.8328 1090.0782,677.8328 Q1090.7838,677.8328 1091.4312,677.9822 Q1092.0787,678.1316 1092.6431,678.4305 L1092.6431,681.1531 Q1092.0123,680.5721 1091.4188,680.3023 Q1090.8253,680.0325 1090.1944,680.0325 Q1088.8497,680.0325 1088.1649,681.0992 Q1087.4801,682.1658 1087.4801,684.2659 Q1087.4801,686.3577 1088.1649,687.4244 Q1088.8497,688.491 1090.1944,688.491 Q1090.8253,688.491 1091.4188,688.2212 Q1092.0123,687.9515 1092.6431,687.3704 Z " fill="#000000"/><text fill="#000000" font-family="sans-serif" font-size="14" lengthAdjust="spacing" textLength="9.6592" x="1104.17" y="689.241">A</text><line style="stroke:#181818;stroke-width:0.5;" x1="1076.17" x2="1115.8292" y1="699.95" y2="699.95"/><line style="stroke:#181818;stroke-width:0.5;" x1="1076.17" x2="1115.8292" y1="707.95" y2="707.95"/></g><!--class JitLinChecker--><g class="entity" data-entity="JitLinChecker" data-source-line="20" data-uid="ent0017" id="entity_JitLinChecker"><rect fill="#F1F1F1" height="48" rx="2.5" ry="2.5" style="stroke:#181818;stroke-width:0.5;" width="120.8945" x="760.55" y="792.95"/><ellipse cx="775.55" cy="808.95" fill="#ADD1B2" rx="11" ry="11" style="stroke:#181818;stroke-width:1;"/><path d="M778.0231,815.0931 Q777.4421,815.3919 776.8029,815.5413 Q776.1638,815.6907 775.4582,815.6907 Q772.9514,815.6907 771.6315,814.0389 Q770.3117,812.387 770.3117,809.2659 Q770.3117,806.1365 771.6315,804.4847 Q772.9514,802.8328 775.4582,802.8328 Q776.1638,802.8328 776.8112,802.9822 Q777.4587,803.1316 778.0231,803.4305 L778.0231,806.1531 Q777.3923,805.5721 776.7988,805.3023 Q776.2053,805.0325 775.5744,805.0325 Q774.2297,805.0325 773.5449,806.0992 Q772.8601,807.1658 772.8601,809.2659 Q772.8601,811.3577 773.5449,812.4244 Q774.2297,813.491 775.5744,813.491 Q776.2053,813.491 776.7988,813.2212 Q777.3923,812.9515 778.0231,812.3704 Z " fill="#000000"/><text fill="#000000" font-family="sans-serif" font-size="14" lengthAdjust="spacing" textLength="88.8945" x="789.55" y="814.241">JitLinChecker</text><line style="stroke:#181818;stroke-width:0.5;" x1="761.55" x2="880.4445" y1="824.95" y2="824.95"/><line style="stroke:#181818;stroke-width:0.5;" x1="761.55" x2="880.4445" y1="832.95" y2="832.95"/></g><!--class MethodInf--><g class="entity" data-entity="MethodInf" data-source-line="21" data-uid="ent0018" id="entity_MethodInf"><rect fill="#F1F1F1" height="48" rx="2.5" ry="2.5" style="stroke:#181818;stroke-width:0.5;" width="101.0635" x="624.47" y="792.95"/><ellipse cx="639.47" cy="808.95" fill="#ADD1B2" rx="11" ry="11" style="stroke:#181818;stroke-width:1;"/><path d="M641.9431,815.0931 Q641.3621,815.3919 640.7229,815.5413 Q640.0838,815.6907 639.3782,815.6907 Q636.8714,815.6907 635.5515,814.0389 Q634.2317,812.387 634.2317,809.2659 Q634.2317,806.1365 635.5515,804.4847 Q636.8714,802.8328 639.3782,802.8328 Q640.0838,802.8328 640.7312,802.9822 Q641.3787,803.1316 641.9431,803.4305 L641.9431,806.1531 Q641.3123,805.5721 640.7188,805.3023 Q640.1253,805.0325 639.4944,805.0325 Q638.1497,805.0325 637.4649,806.0992 Q636.7801,807.1658 636.7801,809.2659 Q636.7801,811.3577 637.4649,812.4244 Q638.1497,813.491 639.4944,813.491 Q640.1253,813.491 640.7188,813.2212 Q641.3123,812.9515 641.9431,812.3704 Z " fill="#000000"/><text fill="#000000" font-family="sans-serif" font-size="14" lengthAdjust="spacing" textLength="69.0635" x="653.47" y="814.241">MethodInf</text><line style="stroke:#181818;stroke-width:0.5;" x1="625.47" x2="724.5335" y1="824.95" y2="824.95"/><line style="stroke:#181818;stroke-width:0.5;" x1="625.47" x2="724.5335" y1="832.95" y2="832.95"/></g><!--class AlgorithmLibrary--><g class="entity" data-entity="AlgorithmLibrary" data-source-line="25" data-uid="ent0020" id="entity_AlgorithmLibrary"><rect fill="#F1F1F1" height="48" rx="2.5" ry="2.5" style="stroke:#181818;stroke-width:0.5;" width="146.6318" x="32.68" y="41"/><ellipse cx="47.68" cy="57" fill="#ADD1B2" rx="11" ry="11" style="stroke:#181818;stroke-width:1;"/><path d="M50.1531,63.1431 Q49.5721,63.4419 48.9329,63.5913 Q48.2938,63.7407 47.5882,63.7407 Q45.0814,63.7407 43.7615,62.0889 Q42.4417,60.437 42.4417,57.3159 Q42.4417,54.1865 43.7615,52.5347 Q45.0814,50.8828 47.5882,50.8828 Q48.2938,50.8828 48.9412,51.0322 Q49.5887,51.1816 50.1531,51.4805 L50.1531,54.2031 Q49.5223,53.6221 48.9288,53.3523 Q48.3353,53.0825 47.7044,53.0825 Q46.3597,53.0825 45.6749,54.1492 Q44.9901,55.2158 44.9901,57.3159 Q44.9901,59.4077 45.6749,60.4744 Q46.3597,61.541 47.7044,61.541 Q48.3353,61.541 48.9288,61.2712 Q49.5223,61.0015 50.1531,60.4204 Z " fill="#000000"/><text fill="#000000" font-family="sans-serif" font-size="14" lengthAdjust="spacing" textLength="114.6318" x="61.68" y="62.291">AlgorithmLibrary</text><line style="stroke:#181818;stroke-width:0.5;" x1="33.68" x2="178.3118" y1="73" y2="73"/><line style="stroke:#181818;stroke-width:0.5;" x1="33.68" x2="178.3118" y1="81" y2="81"/></g><!--class AlgorithmInfo--><g class="entity" data-entity="AlgorithmInfo" data-source-line="26" data-uid="ent0021" id="entity_AlgorithmInfo"><rect fill="#F1F1F1" height="48" rx="2.5" ry="2.5" style="stroke:#181818;stroke-width:0.5;" width="126.2744" x="41.86" y="202"/><ellipse cx="56.86" cy="218" fill="#ADD1B2" rx="11" ry="11" style="stroke:#181818;stroke-width:1;"/><path d="M59.3331,224.1431 Q58.7521,224.4419 58.1129,224.5913 Q57.4738,224.7407 56.7682,224.7407 Q54.2614,224.7407 52.9415,223.0889 Q51.6217,221.437 51.6217,218.3159 Q51.6217,215.1865 52.9415,213.5347 Q54.2614,211.8828 56.7682,211.8828 Q57.4738,211.8828 58.1212,212.0322 Q58.7687,212.1816 59.3331,212.4805 L59.3331,215.2031 Q58.7023,214.6221 58.1088,214.3523 Q57.5153,214.0825 56.8844,214.0825 Q55.5397,214.0825 54.8549,215.1492 Q54.1701,216.2158 54.1701,218.3159 Q54.1701,220.4077 54.8549,221.4744 Q55.5397,222.541 56.8844,222.541 Q57.5153,222.541 58.1088,222.2712 Q58.7023,222.0015 59.3331,221.4204 Z " fill="#000000"/><text fill="#000000" font-family="sans-serif" font-size="14" lengthAdjust="spacing" textLength="94.2744" x="70.86" y="223.291">AlgorithmInfo</text><line style="stroke:#181818;stroke-width:0.5;" x1="42.86" x2="167.1344" y1="234" y2="234"/><line style="stroke:#181818;stroke-width:0.5;" x1="42.86" x2="167.1344" y1="242" y2="242"/></g><!--class AlgorithmCategory--><g class="entity" data-entity="AlgorithmCategory" data-source-line="28" data-uid="ent0022" id="entity_AlgorithmCategory"><rect fill="#F1F1F1" height="113.9531" rx="2.5" ry="2.5" style="stroke:#181818;stroke-width:0.5;" width="160.6318" x="21.68" y="327"/><ellipse cx="36.68" cy="343" fill="#EB937F" rx="11" ry="11" style="stroke:#181818;stroke-width:1;"/><path d="M40.2943,349.5 L32.5745,349.5 L32.5745,337.1069 L40.2943,337.1069 L40.2943,339.2651 L35.0233,339.2651 L35.0233,341.938 L39.7962,341.938 L39.7962,344.0962 L35.0233,344.0962 L35.0233,347.3418 L40.2943,347.3418 Z " fill="#000000"/><text fill="#000000" font-family="sans-serif" font-size="14" lengthAdjust="spacing" textLength="128.6318" x="50.68" y="348.291">AlgorithmCategory</text><line style="stroke:#181818;stroke-width:0.5;" x1="22.68" x2="181.3118" y1="359" y2="359"/><text fill="#000000" font-family="sans-serif" font-size="14" lengthAdjust="spacing" textLength="52.9922" x="27.68" y="376.5352">QUEUES</text><text fill="#000000" font-family="sans-serif" font-size="14" lengthAdjust="spacing" textLength="53.7783" x="27.68" y="393.0234">DEQUES</text><text fill="#000000" font-family="sans-serif" font-size="14" lengthAdjust="spacing" textLength="31.5205" x="27.68" y="409.5117">SETS</text><text fill="#000000" font-family="sans-serif" font-size="14" lengthAdjust="spacing" textLength="36.9961" x="27.68" y="426">MAPS</text><line style="stroke:#181818;stroke-width:0.5;" x1="22.68" x2="181.3118" y1="432.9531" y2="432.9531"/></g><!--reverse link AlgorithmLibrary to AlgorithmInfo--><g class="link" data-entity-1="AlgorithmLibrary" data-entity-2="AlgorithmInfo" data-source-line="38" data-uid="lnk23" id="link_AlgorithmLibrary_AlgorithmInfo"><path codeLine="38" d="M105.7744,101.4598 C105.5844,131.6098 105.34,171.63 105.15,201.7" fill="none" id="AlgorithmLibrary-backto-AlgorithmInfo" style="stroke:#181818;stroke-width:1;"/><polygon fill="#181818" points="105.85,89.46,101.8123,95.4347,105.7744,101.4598,109.8121,95.4851,105.85,89.46" style="stroke:#181818;stroke-width:1;"/></g><!--link AlgorithmInfo to AlgorithmCategory--><g class="link" data-entity-1="AlgorithmInfo" data-entity-2="AlgorithmCategory" data-source-line="39" data-uid="lnk24" id="link_AlgorithmInfo_AlgorithmCategory"><path codeLine="39" d="M104.55,250.35 C104.16,270.49 103.7062,294.4011 103.1962,320.7211" fill="none" id="AlgorithmInfo-to-AlgorithmCategory" style="stroke:#181818;stroke-width:1;"/><polygon fill="#181818" points="103.08,326.72,107.2536,317.7992,103.1769,321.7209,99.2551,317.6442,103.08,326.72" style="stroke:#181818;stroke-width:1;"/></g><!--link AlgorithmLibrary to VerificationFramework--><g class="link" data-entity-1="AlgorithmLibrary" data-entity-2="VerificationFramework" data-source-line="41" data-uid="lnk25" id="link_AlgorithmLibrary_VerificationFramework"><path codeLine="41" d="M139.05,89.46 C181.52,119.61 249.9274,168.1569 292.2874,198.2269" fill="none" id="AlgorithmLibrary-to-VerificationFramework" style="stroke:#181818;stroke-width:1;stroke-dasharray:7,7;"/><polygon fill="#181818" points="297.18,201.7,292.1565,193.2286,293.1028,198.8057,287.5257,199.7521,297.18,201.7" style="stroke:#181818;stroke-width:1;"/><text fill="#000000" font-family="sans-serif" font-size="13" lengthAdjust="spacing" textLength="44.5669" x="269.649" y="132.5684">choose</text><text fill="#000000" font-family="sans-serif" font-size="13" lengthAdjust="spacing" textLength="132.4248" x="225.72" y="147.8789">implementationClass</text></g><!--link VerificationFramework to VerificationBuilder--><g class="link" data-entity-1="VerificationFramework" data-entity-2="VerificationBuilder" data-source-line="42" data-uid="lnk26" id="link_VerificationFramework_VerificationBuilder"><path codeLine="42" d="M353.95,250.35 C384.2,279.84 431.6444,326.081 461.8444,355.531" fill="none" id="VerificationFramework-to-VerificationBuilder" style="stroke:#181818;stroke-width:1;stroke-dasharray:7,7;"/><polygon fill="#181818" points="466.14,359.72,462.4892,350.5728,462.5603,356.2292,456.9039,356.3003,466.14,359.72" style="stroke:#181818;stroke-width:1;"/><text fill="#000000" font-family="sans-serif" font-size="13" lengthAdjust="spacing" textLength="55.415" x="401.42" y="293.5684">verify(...)</text></g><!--link VerificationFramework to VerificationResult--><g class="link" data-entity-1="VerificationFramework" data-entity-2="VerificationResult" data-source-line="43" data-uid="lnk27" id="link_VerificationFramework_VerificationResult"><path codeLine="43" d="M328.89,250.42 C325.95,312.21 318.3141,473.0767 315.3941,534.6867" fill="none" id="VerificationFramework-to-VerificationResult" style="stroke:#181818;stroke-width:1;stroke-dasharray:7,7;"/><polygon fill="#181818" points="315.11,540.68,319.5316,531.8795,315.3467,535.6856,311.5406,531.5007,315.11,540.68" style="stroke:#181818;stroke-width:1;"/><text fill="#000000" font-family="sans-serif" font-size="13" lengthAdjust="spacing" textLength="45.5063" x="326.12" y="389.0384">returns</text></g><!--link VerificationBuilder to WorkloadPattern--><g class="link" data-entity-1="VerificationBuilder" data-entity-2="WorkloadPattern" data-source-line="45" data-uid="lnk28" id="link_VerificationBuilder_WorkloadPattern"><path codeLine="45" d="M490.78,408.37 C491.93,442.67 493.869,500.2434 495.019,534.5534" fill="none" id="VerificationBuilder-to-WorkloadPattern" style="stroke:#181818;stroke-width:1;stroke-dasharray:7,7;"/><polygon fill="#181818" points="495.22,540.55,498.9163,531.4211,495.0525,535.5528,490.9208,531.689,495.22,540.55" style="stroke:#181818;stroke-width:1;"/></g><!--link VerificationBuilder to DistAlgorithm--><g class="link" data-entity-1="VerificationBuilder" data-entity-2="DistAlgorithm" data-source-line="46" data-uid="lnk29" id="link_VerificationBuilder_DistAlgorithm"><path codeLine="46" d="M568.6,391.6 C666.85,402.5 837.91,430.22 968,497.95 C1065.89,548.92 1109.04,565.08 1149,667.95 C1164.29,707.32 1160.52,722.94 1147,762.95 C1143.44,773.47 1140.6715,778.9688 1134.2415,787.6488" fill="none" id="VerificationBuilder-to-DistAlgorithm" style="stroke:#181818;stroke-width:1;stroke-dasharray:7,7;"/><polygon fill="#181818" points="1130.67,792.47,1139.2414,787.6191,1133.6462,788.4523,1132.8131,782.8571,1130.67,792.47" style="stroke:#181818;stroke-width:1;"/><text fill="#000000" font-family="sans-serif" font-size="13" lengthAdjust="spacing" textLength="121.1323" x="1136.91" y="634.5184">builds A(implClass)</text></g><!--link VerificationBuilder to Executioner--><g class="link" data-entity-1="VerificationBuilder" data-entity-2="Executioner" data-source-line="47" data-uid="lnk30" id="link_VerificationBuilder_Executioner"><path codeLine="47" d="M542.95,408.37 C620.56,442.67 758.9221,503.8145 836.5521,538.1245" fill="none" id="VerificationBuilder-to-Executioner" style="stroke:#181818;stroke-width:1;stroke-dasharray:7,7;"/><polygon fill="#181818" points="842.04,540.55,835.4251,533.2532,837.4667,538.5288,832.1912,540.5704,842.04,540.55" style="stroke:#181818;stroke-width:1;"/><text fill="#000000" font-family="sans-serif" font-size="13" lengthAdjust="spacing" textLength="38.5747" x="717.75" y="486.5184">builds</text></g><!--link VerificationBuilder to VerificationResult--><g class="link" data-entity-1="VerificationBuilder" data-entity-2="VerificationResult" data-source-line="48" data-uid="lnk31" id="link_VerificationBuilder_VerificationResult"><path codeLine="48" d="M466.99,408.37 C433.26,442.67 374.957,501.962 341.217,536.272" fill="none" id="VerificationBuilder-to-VerificationResult" style="stroke:#181818;stroke-width:1;stroke-dasharray:7,7;"/><polygon fill="#181818" points="337.01,540.55,346.1725,536.9376,340.5158,536.985,340.4684,531.3283,337.01,540.55" style="stroke:#181818;stroke-width:1;"/><text fill="#000000" font-family="sans-serif" font-size="13" lengthAdjust="spacing" textLength="29.9102" x="403" y="486.5184">run()</text></g><!--link WorkloadPattern to OperationCall--><g class="link" data-entity-1="WorkloadPattern" data-entity-2="OperationCall" data-source-line="50" data-uid="lnk32" id="link_WorkloadPattern_OperationCall"><path codeLine="50" d="M520.06,589.41 C536.19,604.41 558.37,623.65 580,637.95 C596.51,648.87 610.1986,656.4076 627.6286,664.8376" fill="none" id="WorkloadPattern-to-OperationCall" style="stroke:#181818;stroke-width:1;"/><polygon fill="#181818" points="633.03,667.45,626.6695,659.9305,628.5288,665.273,623.1863,667.1324,633.03,667.45" style="stroke:#181818;stroke-width:1;"/><text fill="#000000" font-family="sans-serif" font-size="13" lengthAdjust="spacing" textLength="145.3804" x="581" y="634.5184">generateOperations(...)</text></g><!--link Executioner to OperationCall--><g class="link" data-entity-1="Executioner" data-entity-2="OperationCall" data-source-line="51" data-uid="lnk33" id="link_Executioner_OperationCall"><path codeLine="51" d="M848.08,589.42 C830,598.81 809.31,609.99 791,620.95 C766.54,635.6 744.8023,650.149 724.6023,664.229" fill="none" id="Executioner-to-OperationCall" style="stroke:#181818;stroke-width:1;"/><polygon fill="#181818" points="719.68,667.66,729.3507,665.7951,723.7819,664.8009,724.7761,659.2321,719.68,667.66" style="stroke:#181818;stroke-width:1;"/><text fill="#000000" font-family="sans-serif" font-size="13" lengthAdjust="spacing" textLength="63.4131" x="792" y="634.5184">consumes</text></g><!--link A to DistAlgorithm--><g class="link" data-entity-1="A" data-entity-2="DistAlgorithm" data-source-line="53" data-uid="lnk34" id="link_A_DistAlgorithm"><path codeLine="53" d="M1098.67,716.37 C1101.16,738.26 1102.8309,752.8647 1105.3109,774.7247" fill="none" id="A-to-DistAlgorithm" style="stroke:#181818;stroke-width:1;stroke-dasharray:7,7;"/><polygon fill="none" points="1107.34,792.61,1111.2727,774.0484,1099.3492,775.4011,1107.34,792.61" style="stroke:#181818;stroke-width:1;"/></g><!--link Executioner to Wrapper--><g class="link" data-entity-1="Executioner" data-entity-2="Wrapper" data-source-line="55" data-uid="lnk35" id="link_Executioner_Wrapper"><path codeLine="55" d="M913.76,589.17 C931.9,611.62 955.4588,640.7833 973.5688,663.1933" fill="none" id="Executioner-to-Wrapper" style="stroke:#181818;stroke-width:1;"/><polygon fill="#181818" points="977.34,667.86,974.7943,658.3458,974.1973,663.9711,968.572,663.3742,977.34,667.86" style="stroke:#181818;stroke-width:1;"/></g><!--link Executioner to Verifier--><g class="link" data-entity-1="Executioner" data-entity-2="Verifier" data-source-line="56" data-uid="lnk36" id="link_Executioner_Verifier"><path codeLine="56" d="M884.6,589.17 C874.54,611.62 861.8431,639.9744 851.8031,662.3844" fill="none" id="Executioner-to-Verifier" style="stroke:#181818;stroke-width:1;"/><polygon fill="#181818" points="849.35,667.86,856.6801,661.282,851.3943,663.297,849.3793,658.0112,849.35,667.86" style="stroke:#181818;stroke-width:1;"/></g><!--link Executioner to Snapshot--><g class="link" data-entity-1="Executioner" data-entity-2="Snapshot" data-source-line="57" data-uid="lnk37" id="link_Executioner_Snapshot"><path codeLine="57" d="M900.81,589.41 C908.21,618.99 921.53,671.38 934,715.95 C941.38,742.31 948.7233,766.626 954.9533,786.846" fill="none" id="Executioner-to-Snapshot" style="stroke:#181818;stroke-width:1;"/><polygon fill="#181818" points="956.72,792.58,957.8926,782.8012,955.2477,787.8017,950.2473,785.1568,956.72,792.58" style="stroke:#181818;stroke-width:1;"/></g><!--link Executioner to DistAlgorithm--><g class="link" data-entity-1="Executioner" data-entity-2="DistAlgorithm" data-source-line="58" data-uid="lnk38" id="link_Executioner_DistAlgorithm"><path codeLine="58" d="M951.45,572.4 C1008.45,582.24 1093.66,606.87 1134,667.95 C1159.18,706.07 1141.2208,756.1072 1125.7708,787.1872" fill="none" id="Executioner-to-DistAlgorithm" style="stroke:#181818;stroke-width:1;"/><polygon fill="#181818" points="1123.1,792.56,1130.6881,786.2814,1125.3257,788.0827,1123.5244,782.7203,1123.1,792.56" style="stroke:#181818;stroke-width:1;"/></g><!--link Wrapper to Snapshot--><g class="link" data-entity-1="Wrapper" data-entity-2="Snapshot" data-source-line="60" data-uid="lnk39" id="link_Wrapper_Snapshot"><path codeLine="60" d="M989.91,716.37 C984.21,738.26 977.2714,764.9435 971.5814,786.8035" fill="none" id="Wrapper-to-Snapshot" style="stroke:#181818;stroke-width:1;"/><polygon fill="#181818" points="970.07,792.61,976.2081,784.9078,971.3295,787.7712,968.4661,782.8926,970.07,792.61" style="stroke:#181818;stroke-width:1;"/></g><!--link Wrapper to DistAlgorithm--><g class="link" data-entity-1="Wrapper" data-entity-2="DistAlgorithm" data-source-line="61" data-uid="lnk40" id="link_Wrapper_DistAlgorithm"><path codeLine="61" d="M1012.23,716.22 C1022.44,730.28 1036.26,748.27 1050,762.95 C1059.59,773.2 1066.4086,779.6889 1076.6586,788.5389" fill="none" id="Wrapper-to-DistAlgorithm" style="stroke:#181818;stroke-width:1;"/><polygon fill="#181818" points="1081.2,792.46,1077.0019,783.5507,1077.4155,789.1924,1071.7738,789.6059,1081.2,792.46" style="stroke:#181818;stroke-width:1;"/><text fill="#000000" font-family="sans-serif" font-size="13" lengthAdjust="spacing" textLength="42.5483" x="1051" y="759.5184">apply()</text></g><!--reverse link Snapshot to CollectFAInc--><g class="link" data-entity-1="Snapshot" data-entity-2="CollectFAInc" data-source-line="62" data-uid="lnk41" id="link_Snapshot_CollectFAInc"><path codeLine="62" d="M943.3612,857.3767 C934.0212,875.2167 929.59,883.7 920.26,901.52" fill="none" id="Snapshot-backto-CollectFAInc" style="stroke:#181818;stroke-width:1;"/><polygon fill="none" points="951.71,841.43,938.0456,854.5938,948.6768,860.1596,951.71,841.43" style="stroke:#181818;stroke-width:1;"/></g><!--reverse link Snapshot to CollectRAW--><g class="link" data-entity-1="Snapshot" data-entity-2="CollectRAW" data-source-line="63" data-uid="lnk42" id="link_Snapshot_CollectRAW"><path codeLine="63" d="M995.6303,855.1426 C1010.8003,872.9826 1019.92,883.7 1035.08,901.52" fill="none" id="Snapshot-backto-CollectRAW" style="stroke:#181818;stroke-width:1;"/><polygon fill="none" points="983.97,841.43,991.0595,859.0294,1000.2012,851.2558,983.97,841.43" style="stroke:#181818;stroke-width:1;"/></g><!--link OperationCall to MethodInf--><g class="link" data-entity-1="OperationCall" data-entity-2="MethodInf" data-source-line="64" data-uid="lnk43" id="link_OperationCall_MethodInf"><path codeLine="64" d="M683.6,716.4 C682.34,725.6 680.99,736.25 680,745.95 C678.42,761.47 677.5437,772.9817 676.6937,786.6017" fill="none" id="OperationCall-to-MethodInf" style="stroke:#181818;stroke-width:1;"/><polygon fill="#181818" points="676.32,792.59,680.8728,783.8566,676.6314,787.5997,672.8884,783.3583,676.32,792.59" style="stroke:#181818;stroke-width:1;"/></g><!--link Verifier to Snapshot--><g class="link" data-entity-1="Verifier" data-entity-2="Snapshot" data-source-line="66" data-uid="lnk44" id="link_Verifier_Snapshot"><path codeLine="66" d="M847.19,716.4 C853.18,731.05 862.46,749.61 875,762.95 C886.7,775.4 896.7542,782.9443 911.3342,791.2343" fill="none" id="Verifier-to-Snapshot" style="stroke:#181818;stroke-width:1;"/><polygon fill="#181818" points="916.55,794.2,910.7034,786.2743,912.2035,791.7286,906.7492,793.2287,916.55,794.2" style="stroke:#181818;stroke-width:1;"/><text fill="#000000" font-family="sans-serif" font-size="13" lengthAdjust="spacing" textLength="55.5864" x="876" y="759.5184">buildXE()</text></g><!--link Verifier to JitLinChecker--><g class="link" data-entity-1="Verifier" data-entity-2="JitLinChecker" data-source-line="67" data-uid="lnk45" id="link_Verifier_JitLinChecker"><path codeLine="67" d="M798.01,707.61 C763.21,720.48 718.09,738.29 713,745.95 C708.82,752.24 709,756.54 713,762.95 C723.72,780.14 736.3189,789.5247 754.6689,797.5147" fill="none" id="Verifier-to-JitLinChecker" style="stroke:#181818;stroke-width:1;stroke-dasharray:7,7;"/><polygon fill="#181818" points="760.17,799.91,753.5152,792.6496,755.5857,797.9139,750.3214,799.9844,760.17,799.91" style="stroke:#181818;stroke-width:1;"/><text fill="#000000" font-family="sans-serif" font-size="13" lengthAdjust="spacing" textLength="120.7515" x="714" y="759.5184">checkLinearizable()</text></g><!--SRC=[ZLHTRzem57tthx3wqC4a-07JL2cZgKJLQXJMTGzxSSmbiN3ip7QsiRN_VTS1Wcs2j3p5z_YUU-wNdMweqxJGpkcQheK1xeHMX3ICRra9zEeh6B4Hd7appHRpA_gNKFouPDRI4Bqph8PVscmlu9zQ8TTWBg1BiArq0VY2J5ApzO8v1qQHjq3KQcSTr3GpFrhXK79h8DQL_mRUUjeetkS6J1TingGCGndMD0FA3YPMM6SOTmTifLXZAnrgdMafKSPTDbVytBpCNZgZK9Z8Xd6WjyAwJ9RQ25VLWKCM_DyBzo3Kh0A-ZQGzWglqUgusKKLcp36fItgDGTL6b74v-bWFeZ3Cx8OWPDIa0q2rzScEp82_kmEX_vwUy-TyrHzlywVmkCg_d0wFsM9_UFDotz4bICPzNonjZ51SD4o29IHLIDzF9ecsw4GdavjpZGCyq-dDy9JI3vHNMbluhaJTIAX1kVrm-BgGOP-KxJ3JoFNJMtUZwNGw_a_V_SIZgm4SO8L566BsNkagNBeNZHKI5nx35ezyWbrQuuk-mSRqdXSl3wVHgj6Oa4HirwXeyV1g2SeReBVRVU524KD-76-sTJSlgECroPYS-HyNExNtwvq2_MwdG1BeG1pxXCQq5OZ87PRdU9b-VCK1ZzwDGSY_7N4LFFlf3I37L28fnmv-oqVZqmtVkUXLwLO0_z02p8W_h9203ly0]--></g></svg>